<?xml version="1.0" encoding="utf-8"?>
<!-- Generator: Adobe Illustrator 23.0.0, SVG Export Plug-In . SVG Version: 6.00 Build 0)  -->
<svg version="1.1" id="Capa_1" xmlns="http://www.w3.org/2000/svg" xmlns:xlink="http://www.w3.org/1999/xlink" x="0px" y="0px"
	 viewBox="0 0 1280 1280" style="enable-background:new 0 0 1280 1280;" xml:space="preserve">
<style type="text/css">
	.st0{fill:#FFFFFF;}
</style>
<g transform="translate(0.000000,1280.000000) scale(0.100000,-0.100000)">
	<path class="st0" d="M5772.8,11792.5c-16.8-16.2-27-18.7-58.6-11.1c-53.5,11.7-88.2-2.6-120.6-48c-16.2-23.2-44.4-46.8-70-58.6
		c-24.6-10.8-47.3-24.7-51.6-30.5c-16.2-23.2-58.5-69.2-90-98.6c-40-38-104.1-160-131.5-246.7c-13.2-44.4-21.4-107.1-26.3-205.9
		c-7.7-153.8,3-220.4,43.9-282.6c12.1-17.6,22.1-39.2,21.7-47.1c-0.4-8,13.1-37.7,30.8-65.6c16.7-26.9,34-61.8,37.3-75
		c3.3-14.2,16.1-38.9,28.3-54.5c12.2-16.6,22.4-33.2,22.2-37.2s9.9-21.5,23.1-38.2c48-61.5,17-100-69.5-87.6
		c-65.6,9.3-75,1.8-88.8-74.6c-4.3-26.8-14-60.4-20.8-75.1c-7.9-17.6-7.6-31.7-1.3-46c8.1-17.4,5.8-24.3-16-39.2
		c-13.5-10.3-44-19.8-66.2-22.7c-25.2-2.7-43.6-10.8-48.1-21.6c-9-20.6-30.1-40.5-42.1-39.9c-5,0.3-25-18.8-44.1-41.8
		c-19.2-23.1-43.4-45.9-53.5-49.4c-10.2-4.5-49.8-34.6-87.4-66.7c-53.4-46.4-69.4-66.6-75.9-96.3c-13-59.4-52.1-139.6-71.3-144.6
		c-22.3-5.9-57.3-64.2-81.9-136.1c-11.6-32.5-27.7-73.7-36.6-91.3c-8.9-17.6-15.8-36.3-16.1-42.2c-0.3-6-10.5-29.5-22.6-51.9
		c-12.2-23.4-25.1-61.8-30.3-85.6c-5.1-23.3-15.3-53.1-23-67.1c-0.3-0.6-0.6-1-0.9-1.6c-8.9-14.3-26.4-52.6-40-87.3
		c-21.8-56-27.5-89.7-39.2-263.4c-11.7-173.6-11.6-210.7,1.7-285.4c14.1-77.8,14-119.9-2.1-441.4c-10.5-209.7-14.6-370.7-9.8-395
		c11.4-52.6,12.5-290,2-439.7c-5.9-76.8-4.7-153,3.3-213.4c12.9-101.8,7.3-153.6-21.2-203.2c-59.2-103.2-76-157.4-80.2-261.3
		c-2.9-56.9-1.2-124.1,3.5-150.4c5.6-27.3,8.3-93.5,6.6-148.5l-2.2-72.3c-0.5-15.8,10.9-29.5,26.5-32.1l17.4-2.8
		c42.7-7.1,44.6-9.2,48.8-45.5c1.9-21.1,8.8-43.5,15.5-50.8c5.7-6.3,9.9-21.5,9.3-33.5c-0.7-14,16.9-42.9,46.3-74.4
		c54.1-58.8,58.6-90,19-121.1c-21.9-16.9-26.5-29.7-29.7-72.6c-1.5-29-13.2-83.4-26.1-121.8c-12.9-37.4-28.5-88.7-34.7-113.4
		c-5.2-24.8-21.8-75-34.7-113.4c-12.9-37.4-35.9-117.3-50-177.7c-35.3-144.4-61.6-249.2-74.7-291.6c-5.9-18.7-15.1-61.3-19.7-94.1
		c-15.4-107.4-20.4-127.1-36.2-142.4c-13.7-14.3-97.4-165.3-143.1-259.2c-10.9-21.1-26.1-50.7-34.1-67.5c-0.3-0.6-0.5-1-0.8-1.6
		c-9.1-16.3-32-62.3-50.8-101.8c-19-40.1-46.9-95.8-61.2-122.1c-13.4-27.4-31.6-71.5-40-98.1c-8.3-26.6-26.9-77.8-41.7-113.1
		c-14.8-35.3-36.6-90.3-49.2-122.7c-37.2-102.3-48.5-128.7-101-236.2c-18.9-38.1-56-139.4-82.4-226.2
		c-26.3-85.8-58.3-185.3-71.1-220.7c-81.7-232.2-113-336.8-110.5-366.9c0.5-10-8.9-38.6-20.3-65.1c-12.3-25.4-25.7-72.8-31.2-103.6
		c-5.5-30.8-14-59.4-19.1-62.1c-5.1-2.7-10-19.5-10.9-38.5c-1-19-17-99.3-35.1-180.5c-18-80.2-38.6-171.3-45.1-201
		c-6.5-29.7-19.7-94.1-30.2-143.7c-26.2-122.8-30.7-213.7-12.2-243.7c16.7-26.9,9.4-92.6-16.5-150.4c-18-39.1-47.7-171.8-43.9-196.1
		c2.2-15.1-4.1-41.8-13-59.4c-14.3-26.3-15.8-36.3-5.8-56.8c6.3-13.3,8.2-36.5,4.4-52.3c-3.7-14.8-1.1-42,5-59.3
		c10.5-30.6,15.4-32.8,103.5-53.2c51.5-11.6,106.1-21.3,123-22.2c61-2.1,189.2-21.5,198.7-30c4.7-5.2,40.4-13,78.2-17.9
		c37.8-5.9,71.5-11.6,75.4-14.8c3.8-3.2,37.6-8.9,75.4-14.8c37.8-4.9,81.4-14.1,98.1-20.9c41-16.9,677.5-55.9,784.8-49.4
		c11.8,0.7,22.4,8,26.8,18.9c2.1,5.1,3.4,10.6,3.7,15.7c1.3,26,20.3,45,43.3,43.9c21-1.1,38.9,77.1,25.4,107.9
		c-5.4,11.3-9.2,35.5-8.3,53.5c1.2,23-6.8,44.4-26.7,67.4c-15.1,18.8-28.1,38.5-27.9,43.4c0.9,18-43,40.2-95.7,47.9
		c-53.6,8.7-131.4,35.6-248.1,84.5c-35.3,14.8-90.3,36.6-123.8,47.3c-54.2,17.7-59,22-53.9,42.8c3.8,15.8,1.2,24-8.8,24.5
		c-8,0.4-31.1,19.6-50.9,42.6c-19.9,23-41.9,42.2-47.9,42.5c-11,0.6-11.9,2.6-62.2,118.3c-17.9,42.9-32.6,88.7-32,99.7
		c-0.4,12-5.3,33.3-12.6,47.7c-21,41.1-13.9,62.8,35.6,111.4l38.4,37c5.8,5.6,9.2,13.1,9.6,21.1l3.1,61.5
		c2.1,40.9-0.2,75.1-5.2,75.4c-22,1.1-16.9,42.9,15.5,129.4c27.9,76.7,37,118.3,47.5,227.9c10.6,111.6,18.2,143.3,39.4,186.3
		c14.4,28.3,26.7,53.7,26.8,55.7s25.5,49.8,55.4,106.4c30.9,56.5,55.3,105.4,55.5,108.4c0.3,6,70.7,111.6,111.5,167.6
		c9.7,14.5,30.4,46.5,43.7,71.9c13.6,24.1,30,49.1,37,57.1c0.7,0.8,1.2,1.4,1.8,2.2c6.3,8.9,24,42.4,39.1,77
		c22.7,53.9,44.1,80.9,108.1,139.8c61,58,90.9,95.6,134.8,171.5c30.7,53.5,72.4,125.5,94.2,160.5c20.8,35,50.6,91.6,64.4,126.9
		c27.4,67.7,154.9,334.7,175.6,366.7c6.5,10.7,25.6,51.8,43.7,92.9c67,157.8,123.5,286.2,139.9,313.4c16.5,29.2,36.6,31.2,35.3,4.2
		c-1.4-27,141.7-389.6,212.4-537.3c23.6-49.2,52.5-170.8,50.6-209.8c-1.9-37,9.1-117.6,26.5-189.6c6.6-27.4,17.4-73,24-101.3
		c31.4-131.7,49.3-195.7,64.8-224.5c10.1-17.5,17-40.9,16.5-50.9c-0.6-11,4.6-28.3,11-39.6c7.4-11.4,25.2-57.3,40.9-102.2
		c15.8-44.8,39.6-109.1,53.9-142.9c66.9-163.6,98.3-237.2,112.1-260.9c7.3-14.4,21.7-46.1,31.5-71.7c8.7-25.5,28.6-68.5,43.2-97.3
		c68.5-131.6,92.1-180.8,97-202.1c3.3-13.2,9.6-28.5,14.3-34.8s22.9-43.2,40.9-82.2c18.1-39,60.2-117.2,92.4-173.8
		c53.5-90.8,87-141.5,162.9-245.5c19.7-27,20.2-37.1,10.6-167.7l-8.7-121.4c-0.8-10.8,4-21.2,12.7-27.6l12.2-9
		c14.4-11.7,38.3-34,54.6-49.8c15.2-15.8,41.4-32.1,57.2-36.9c18.8-3.9,30.3-14.5,32.6-28.7c2.4-11.1,9.4-51.5,15.5-89.9
		c13.1-75,57.1-238,75.4-280.9c0.4-0.9,0.7-1.6,1.1-2.4c7.3-14.1,19-31,26.4-38.2c8.6-8.4,14.8-23.8,14.2-35.8
		c-0.6-12,3.6-27.2,10.3-34.6c6.6-7.3,15.6-27.8,20.8-45.1c7.5-29.4,12.3-33.7,43.3-34.2c53-0.7,159.7,29,223.3,60.9
		c30.9,16.5,80.1,40,109.8,53.6c28.8,14.6,98.5,47.1,153.9,74.4c55.4,27.3,129.3,62.6,164.1,77.9c33.8,15.3,68.7,32.6,77,38.2
		c7.3,5.6,43,18.9,78.6,29.1c36.6,10.2,83.4,25.9,103.9,35.8c21.5,8.9,44.9,16.8,52.9,16.4c14-0.7,126.2,61.8,201.9,112
		c74.6,49.3,260.7,228.2,270.3,259.8c15.5,50.3-70.2,157.7-144.1,181.4c-22.7,7.1-44.1,18.2-46.9,23.4c-11,19.6-51.4,12.6-91.8-14.4
		c-21.8-14.9-75.8-53.3-118.4-85.2c-116.5-86.3-125.6-88.8-203.8-69.9c-35.6,8.8-76,22.8-90.6,30.6c-14.6,8.7-37.3,15.9-50.2,16.5
		c-22,1.1-54.7,27.8-44.2,36.3c2.1,1.9,33.7,12.3,70.2,22.5c83.3,24.9,134.5,47.3,153.6,68.4c13.7,14.3,11.8,15.4-24.4,12.2
		c-22.1-1.9-93.1-19.4-157.1-38.2c-130.1-39.5-208.4-43.6-217.9-12.1c-35.7,126.9-81.9,203.4-179.4,296.3
		c-30.6,29.6-67.5,71.5-82.4,94.2c-34.5,51.8-127.3,156.6-177.2,200.1c-35.5,30.8-39,40-52.2,117.8
		c-19.7,126.1-86.2,396.8-102.3,415.6c-7.6,8.4-12.7,25.7-12.2,36.7c1.1,21-11.8,63.7-43.9,142.4c-8.8,24.5-16.6,47.9-16.4,52.9
		c0.5,10-75.5,232.1-89.1,260.8c-5.4,11.3-11.5,69.7-12.5,130.8c-2.5,109.3-25.1,238.6-45,260.6c-15.2,16.8-11,39.6,12.3,66.5
		c25.5,29.8,35.7,152.4,15.3,184.5c-6.4,11.3-14.3,53.8-16.3,93.9c-2,39.2-7.2,75.5-12.1,78.7c-4.8,3.2-8.2,16.4-7.5,29.4
		c1.1,22-11.5,70.7-33.4,131.8c-4.4,11.2-10.4,31.6-13.7,45.7c-2.3,14.1-19,60-36.9,102c-18.8,44-30.6,88.6-28.8,105.6
		c3,19.9-4.1,38.3-22.1,59.2c-26.5,30.4-30,41.6-66.7,226.6c-24.7,127.4-66.9,303.7-79.4,334.4c-28.4,72.5-68.8,264.8-59,280.3
		c5.4,7.7-9.1,37.5-67.2,137.5c-11,19.6-20,40.1-19.7,46c0.3,5,16.5,30.2,36.9,56.2c78.1,99.2,108.7,170.8,91.8,212.7
		c-7.2,16.4-15.5,49.8-19.3,75.1c-4.7,25.3-19.3,75.1-32.4,111.8c-28.3,74.5-28.7,166.6-3.2,255.5c12,39.4,13.3,66.4,5,138.9
		c-5.5,49.3-16.3,93.9-23.1,98.3c-12.5,9.6-12.3,33.7,8.2,283.9c10.2,123.6,16.2,144.4,41.2,143.1c22-1.1,84.1-39.3,104.9-64.3
		c10.4-12.5,21.9-22.1,26.9-22.4c11-0.6,59.1-39,98.2-78c16.2-16.8,47-40.4,68.5-52.5s45.6-28.3,53.3-34.7
		c34.5-30.8,89-42.5,171.3-38.6c113.4,5.3,161.1-2.1,215.6-32.8c25.3-14.3,81.2-37.1,123.6-50.3c254.4-77.8,319.4-100.1,319-108.1
		c-0.3-5,4.6-8.2,10.6-8.5c24-1.2,135.6-71.9,134.9-84.9c-1.5-30,100.2-119.2,191.8-167.8c190.1-102.6,277.7-153.1,293.8-170.9
		c20-21,21.5-51.1,2.8-43.2c-16.6,7.8-37.9-37.1-27.9-57.7c10.9-21.6,35-21.8,83.1-0.2c22.5,9.9,44.9,17.8,51,18.5
		c18,0.1,107.6,108.8,116.2,140.4c4.9,17.8,15.8,36.3,24.2,42.8c8.3,5.6,14.8,15.3,15.1,22.3c0.3,6,11.7,33.5,24.1,60.9
		c30.2,62.6,27.1,80.7-31.4,171.8c-62.2,98.2-105.7,149.5-126.6,150.5c-10,0.5-49.1,18.5-88.1,40.5c-52.6,29.7-87,42.4-138.7,49
		c-69.7,8.5-74.6,10.7-183.8,89.3c-28.1,19.4-116.3,75.9-197,125c-131.2,79.7-153.3,97.8-220.5,175.3c-53.9,62.8-97.1,100-157.3,138
		c-43.1,27.3-87,58.4-98.5,69.9c-0.8,0.8-1.5,1.5-2.3,2.2c-10.8,9.1-30.5,17.5-45.9,18.3c-21,1.1-33.6,9.7-46.5,31.4
		c-18.4,33-108.8,106.6-131.8,107.7c-9,0.5-19.6,9-24.1,19.2c-4.5,10.2-32.4,32.7-62.6,49.2c-29.2,16.5-59.2,38-65.7,47.3
		c-6.6,8.3-35.4,32.8-64.4,54.3c-28,21.4-66.6,49.4-83.9,63.3c-18.4,12.9-41.9,43.2-52.8,65.7c-11.8,23.6-26.3,54.4-33.6,68.8
		c-7.3,14.4-25.1,38.3-40.4,52.1c-15.3,13.8-34.1,39.8-41.2,56.1c-8.1,17.4-27.8,44.4-45,61.3c-17.2,16.9-43.1,59.2-56.4,93.9
		c-24,61.3-49.6,108.6-76.1,140c-9.3,11.4-13.4,68.4-8.1,119.8c0.1,1.2,0.2,2.3,0.2,3.5c-0.5,9.3-7,30.9-15.4,50.1
		c-9,20.5-21.4,73.2-28.2,117.6c-8.7,65.5-7.9,82.5,2.7,94c8.4,7.6,20.5,30,27.5,48.7c15.1,41.3,3.3,106-37.3,194.1
		c-21.6,48.1-23.6,69.3-23.5,189.4c-0.3,74.1-2.9,182.4-7.1,238.7c-6.1,97.4-3.1,137.3,20.3,285.3c5.9,38.8,5.3,65.8-2.9,82.2
		c-8.1,18.4-8.5,30.5,1.5,49c7.7,13.6,13.7,34.4,14.2,44.3c0.6,11,6,19.7,12,19.4c6-0.3,23.4,6.8,37.9,17.1
		c16.5,10.2,55,18.3,95.1,20.3c37.1,1.1,86.5,8.7,109.9,15.5s59.7,12,79.7,11c51.9-2.6,68.3,4.6,86.9,36.7
		c22.9,37.9,23.7,92.9,3,159.1c-9.5,30.5-16.9,62.9-16.4,72.9c0.5,9-10.4,31.6-24.6,49.3l-5,6.6c-11,14.5-7.5,35.3,7.6,45.4l0,0
		c16.6,11.2,28.4,27.6,29.2,42.6c0.7,14,11.5,29.5,27,38.7c14.4,8.3,26,19.7,26.4,26.7c0.3,6,15.9,17.2,34.3,24.3
		c41.9,16.9,52.3,64.5,23.3,105c-11.2,15.6-19,40-18.3,55c0.8,15-5.5,30.3-13.3,33.7c-30.4,13.5-64.2,158.4-44.5,190.5
		c14.2,24.3,3.1,102-22.8,165.3c-8.9,22.5-20.1,59.1-25,81.4c-4.9,22.3-19.4,53-31.6,68.7c-36.9,42.9-39.2,76.1-7.7,106.5
		c29.5,28.6,51.3,85.5,54.2,142.5c1.6,31-4.8,44.3-33.4,73.8c-20,20-49.1,39.5-63.9,44.3c-15.8,3.8-44.1,19.2-62.4,33.2
		c-46.3,34.4-96.8,45.9-120.8,26.1c-24-19.8-35-18.3-54.8,5.7c-9.4,11.5-39.5,31-66.9,44.4c-46.9,23.4-55.8,24.8-112.3,16.6
		c-51.5-8.4-66.4-6.7-94.8,6.8C5851.1,11815.6,5798,11816.2,5772.8,11792.5z"/>
</g>
</svg>
