<?xml version="1.0" encoding="utf-8"?>
<!-- Generator: Adobe Illustrator 23.0.0, SVG Export Plug-In . SVG Version: 6.00 Build 0)  -->
<svg version="1.1" id="Capa_1" xmlns="http://www.w3.org/2000/svg" xmlns:xlink="http://www.w3.org/1999/xlink" x="0px" y="0px"
	 viewBox="0 0 1280 920" style="enable-background:new 0 0 1280 920;" xml:space="preserve">
<style type="text/css">
	.st0{fill:#FFFFFF;}
</style>
<g transform="translate(0.000000,920.000000) scale(0.100000,-0.100000)">
	<path class="st0" d="M7668.1,7890.4c-120.1-15.8-402.2-66-455.5-81.8c-81-23.3-147.1-57.8-249.9-129.8
		c-138.8-96.8-297.1-189.8-393.9-231.1c-60-25.5-211.6-69.8-240.1-69.8c-26.3,0-73.5,20.3-117.8,51c-45.8,30.8-75,39-140.3,39
		c-50.3,0-63-3-106.5-25.5c-27-13.5-67.5-30.8-90.8-37.5c-46.5-13.5-66-34.5-66-71.3c0-14.3,6-26.3,15.8-33.8l16.5-11.3l-20.3-17.3
		c-10.5-9.8-23.3-28.5-27-42.8c-6.8-24-5.3-27.8,19.5-51c14.3-13.5,21.8-24.8,16.5-24.8c-12,0-27.8-24-36.8-54.8
		c-6-20.3-3-25.5,20.3-47.3c25.5-24.8,25.5-25.5,14.3-47.3c-16.5-32.3-14.3-44.3,12-69c16.5-15.8,30.8-21.8,50.3-21.8
		c14.3,0,32.3-5.3,39.8-12c24-21.8,69.8-32.3,138.8-33c101.3,0,154.6,21.8,164.3,68.3c7.5,33.8,67.5,108,107.3,132.8
		s198.8,78.8,267.9,90.8c24.8,3.8,92.3,11.3,150.1,15.8c57.8,4.5,118.6,11.3,135.1,15c16.5,3,58.5,8.3,93.8,11.3
		c266.4,19.5,350.4,41.3,460.7,116.3c48.8,33,132.8,72,211.6,96.8l30.8,9.8l42-44.3c24-24.8,68.3-66.8,99-93
		c30.8-26.3,56.3-49.5,56.3-51.8s-21-12-46.5-21.8c-99-38.3-284.4-138.1-403.7-216.1C7124.9,6792.6,6400,6276.4,6400,6259.9
		c0-3.8-15.8-8.3-35.3-11.3c-135.8-16.5-276.9-59.3-413.4-123.8c-212.3-101.3-323.4-217.6-417.2-436.7
		c-57-132.8-99.8-189.8-292.6-387.9c-231.9-237.1-324.1-371.4-334.6-482.5c-5.3-60.8-30.8-118.6-108-244.6
		c-23.3-39-54.8-93.8-69-123.1c-75-148.6-219.1-358.7-290.4-423.2c-52.5-48-87.8-63-147.8-63c-77.3,0-225.1-21-295.6-41.3
		c-159.8-46.5-280.6-105-416.4-201.1c-48-34.5-123.8-86.3-169.6-114.8c-111-69.8-179.3-121.6-277.6-210.1
		c-234.1-210.1-369.2-306.9-549.2-393.9l-77.3-36.8l-38.3,29.3c-21.8,16.5-57.8,36.8-80.3,45c-56.3,21.8-168.8,33-271.6,27.8
		l-86.3-4.5l-54.8,26.3c-71.3,33.8-90.8,33.8-129.1-1.5c-68.3-60.8-120.8-217.6-135.1-400.7c-4.5-59.3-23.3-204.1-42-321.9
		c-63-399.2-68.3-493-36.8-604.8c35.3-123.8,66.8-189.1,105.8-219.8c34.5-27,144.1-17.3,207.8,19.5c42.8,24.8,51,51.8,48.8,171.1
		l-1.5,105l27.8,52.5c36.8,69.8,123.1,183.8,246.1,326.4l101.3,116.3l83.3,41.3c90.8,45,126.8,72.8,133.6,105.8
		c4.5,18,15.8,26.3,74.3,54c50.3,24,84.8,47.3,123.8,82.5c84,77.3,122.3,96,571.8,276.1c39,15.8,130.6,45.8,202.6,66
		c261.1,75,367.7,114.8,685.8,259.6c411.9,186.8,517.7,242.4,892.1,469c100.5,60,165.8,95.3,173.3,93c18-7.5,110.3,25.5,170.3,60
		c120.8,69,306.1,213.8,437.4,342.2c70.5,69,168.1,158.3,216.8,198.8l89.3,73.5l38.3-21c63-34.5,204.1-128.3,283.6-188.3
		c83.3-63.8,250.6-174.1,508-336.9c156.8-99,177.8-110.3,200.3-106.5c19.5,3,40.5-2.3,87-24c34.5-15.8,95.3-43.5,135.8-60.8
		c39.8-17.3,72.8-33.8,72.8-36.8s-12.8-11.3-27.8-18.8c-108.8-51.8-204.1-138.1-309.9-278.4c-109.5-146.3-170.3-201.8-396.9-363.9
		c-69-48.8-165.8-123.8-214.6-166.6c-141.1-121.6-217.6-175.6-322.6-228.1c-77.3-38.3-109.5-50.3-152.3-56.3
		c-115.6-15.8-155.3-39.8-294.9-177.1c-63-61.5-115.6-107.3-123.8-107.3c-7.5,0-32.3-8.3-54-18.8c-67.5-31.5-75.8-81.8-32.3-195.8
		c31.5-81,87-168.1,164.3-256.6c39-44.3,144.1-177.8,234.1-297.9c245.4-327.1,285.1-367.7,431.4-441.2
		c95.3-47.3,164.3-60.8,204.8-39.8c36.8,19.5,93,105,102.8,156.8c9,48-0.8,65.3-86.3,147.8c-71.3,69.8-82.5,84-93,120.1
		c-27,89.3-44.3,198.8-60.8,381.9c-15.8,177.1-15,191.3,15.8,279.9c14.3,42.8,27,92.3,27.8,110.3l1.5,32.3l206.3,137.3
		c308.4,204.8,747.3,478.7,949.2,592.8c49.5,27.8,171.1,92.3,269.4,144.1c300.9,155.3,407.4,231.1,451.7,321.9
		c18,37.5,19.5,47.3,16.5,102.8c-8.3,129.1-96,337.6-318.1,756.3c-60,114.1-69,135.8-66,158.3c3.8,23.3,0,31.5-40.5,81.8
		c-24.8,30.8-91.5,106.5-148.6,168.1c-123.8,134.3-588.3,601-651.3,654.3l-43.5,37.5l99.8,71.3c211.6,150.1,324.1,218.3,439.7,266.4
		c155.3,63.8,153.1,63.8,456.2,69.8c148.6,2.3,271.6,3.8,273.1,3c1.5-1.5-8.3-45-21-98.3c-38.3-162.1-48-230.4-48.8-354.9
		l-0.8-117.1l28.5-57.8c38.3-77.3,114.1-177.1,143.3-189.1c22.5-9,108.8-20.3,237.1-30.8c35.3-2.3,97.5-14.3,138.8-25.5
		c141.8-39.8,258.1-49.5,434.4-37.5c151.6,10.5,220.6,23.3,365.4,69c115.6,36,129.1,38.3,220.6,42c75.8,2.3,103.5,6.8,125.3,17.3
		c36.8,18.8,59.3,18,102.8-3.8c95.3-48.8,195.8-63,287.4-42c39.8,9,46.5,8.3,90-7.5c26.3-9,60.8-24.8,78-34.5
		c33-19.5,65.3-18.8,99,2.3c21,12.8,40.5,56.3,34.5,73.5c-3.8,8.3-1.5,10.5,6.8,6.8c18-6.8,60.8,17.3,75.8,43.5
		c8.3,13.5,14.3,36.8,13.5,56.3c0,27,2.3,32.3,15,32.3c21,0,58.5,39.8,58.5,63c0,9.8-3,27-6.8,36.8c-6.8,16.5-5.3,18.8,12.8,22.5
		c20.3,4.5,46.5,38.3,46.5,60c0,18-60,66-115.6,93.8c-75.8,37.5-124.6,52.5-213.1,64.5c-44.3,6.8-105,16.5-135.1,23.3
		c-99,20.3-122.3,14.3-197.3-52.5c-97.5-87.8-107.3-92.3-293.4-129.1l-167.3-33.8l-108.8,8.3c-137.3,10.5-193.6,22.5-271.6,57.8
		c-79.5,35.3-214.6,81-309.9,105c-41.3,10.5-79.5,20.3-84.8,21.8c-6,2.3,0.8,18,21,48c40.5,59.3,90,166.6,123.8,267.1
		c15.8,45.8,33.8,87,40.5,92.3c15.8,12,132.8,87.8,194.3,124.6c26.3,15.8,74.3,39.8,106.5,52.5c71.3,29.3,117.1,58.5,123.8,78.8
		c2.3,8.3,21.8,21,47.3,31.5c36.8,15.8,54.8,18,125.3,17.3c106.5-0.8,156.8-14.3,210.8-57c22.5-18,66-51,96.8-73.5
		c30.8-22.5,67.5-51,81.8-62.3c19.5-16.5,35.3-21.8,62.3-22.5c32.3-1.5,36,0,45.8,21c15.8,33,30.8,48,75,76.5c36,23.3,39,27.8,39,54
		c0,42,13.5,50.3,57.8,35.3c39-13.5,47.3-9,47.3,27.8c0,18.8,2.3,20.3,32.3,20.3c17.3,0,46.5-6.8,64.5-15
		c62.3-28.5,83.3-16.5,83.3,49.5c0,18.8,5.3,62.3,11.3,96c6,33,13.5,74.3,15.8,90.8c4.5,31.5,37.5,68.3,101.3,112.6
		c21.8,15.8,33.8,30.8,38.3,48c9.8,35.3,39,78.8,67.5,100.5c17.3,12,43.5,20.3,84.8,27c83.3,12,93.8,20.3,93.8,74.3
		c0,34.5-6,54.8-27,99c-24.8,51.8-78,249.1-78,289.6c0,8.3-9,32.3-19.5,54c-15.8,32.3-25.5,42-60,58.5c-22.5,11.3-48,30.8-57.8,43.5
		c-9,12.8-62.3,69.8-118.6,126.8c-69,69.8-107.3,102.8-118.6,102.8c-39,0-135.8,24.8-175.6,45c-54.8,28.5-79.5,28.5-169.6-1.5
		c-69.8-23.3-86.3-25.5-143.3-20.3c-45.8,3.8-120.8-37.5-174.8-95.3c-25.5-27.8-66-64.5-90-82.5c-27.8-20.3-62.3-57-95.3-102
		c-28.5-38.3-63.8-79.5-78-90.8c-25.5-19.5-27-24-27-62.3c0-22.5-5.3-63-12-89.3l-12-47.3l-60,40.5c-76.5,52.5-138.8,84-276.9,138.8
		c-196.6,78-237.1,87-505,105l-134.3,9.8l-39.8,54c-46.5,62.3-75.8,87.8-179.3,154.6c-256.6,166.6-634.8,327.1-780.3,332.4
		C7721.4,7893.4,7682.4,7892.6,7668.1,7890.4z"/>
</g>
</svg>
